<?xml version="1.0" encoding="UTF-8"?>
<!DOCTYPE svg PUBLIC "-//W3C//DTD SVG 1.1//EN" "http://www.w3.org/Graphics/SVG/1.1/DTD/svg11.dtd">
<!-- Creator: CorelDRAW X6 -->
<svg xmlns="http://www.w3.org/2000/svg" xml:space="preserve" width="5.97348in" height="1.93469in" version="1.1" style="shape-rendering:geometricPrecision; text-rendering:geometricPrecision; image-rendering:optimizeQuality; fill-rule:evenodd; clip-rule:evenodd"
viewBox="0 0 5973 1935"
 xmlns:xlink="http://www.w3.org/1999/xlink">
 <defs>
  <style type="text/css">
   <![CDATA[
    .fil4 {fill:#2561A9;fill-rule:nonzero}
    .fil2 {fill:#2873B9;fill-rule:nonzero}
    .fil0 {fill:#35302F;fill-rule:nonzero}
    .fil5 {fill:#8A8A8C;fill-rule:nonzero}
    .fil1 {fill:#9B9A9A;fill-rule:nonzero}
    .fil3 {fill:#9D9C9E;fill-rule:nonzero}
   ]]>
  </style>
 </defs>
 <g id="Layer_x0020_1">
  <metadata id="CorelCorpID_0Corel-Layer"/>
  <g id="_435433424">
   <path class="fil0" d="M304 1915l51 0c17,0 25,-8 25,-26l0 -102c0,-18 -8,-26 -25,-26l-51 0c-2,0 -3,1 -3,2l0 150c0,2 1,2 3,2zm-25 15l0 -184c0,-3 1,-5 4,-5l74 0c14,0 25,4 33,12 8,8 12,19 12,33l0 104c0,14 -4,25 -12,33 -8,8 -19,12 -33,12l-74 0c-3,0 -4,-2 -4,-5z"/>
   <path class="fil0" d="M577 1935l-96 0c-2,0 -4,-2 -4,-5l0 -184c0,-3 2,-5 4,-5l96 0c2,0 4,2 4,5l0 11c0,2 -2,4 -4,4l-75 0c-2,0 -3,1 -3,2l0 61c0,2 1,3 3,3l65 0c3,0 4,1 4,4l0 11c0,3 -1,4 -4,4l-65 0c-2,0 -3,1 -3,3l0 64c0,2 1,2 3,2l75 0c2,0 4,2 4,5l0 10c0,3 -2,5 -4,5z"/>
   <path class="fil0" d="M754 1935l-97 0c-3,0 -4,-2 -4,-5l0 -184c0,-3 1,-5 4,-5l14 0c3,0 4,2 4,5l0 166c0,2 1,3 3,3l76 0c3,0 5,1 5,4l0 11c0,3 -2,5 -5,5z"/>
   <path class="fil0" d="M843 1746l0 184c0,3 -1,5 -4,5l-14 0c-2,0 -4,-2 -4,-5l0 -184c0,-3 2,-5 4,-5l14 0c3,0 4,2 4,5z"/>
   <path class="fil0" d="M987 1935l-22 0c-3,0 -4,-2 -5,-5l-54 -184c0,-3 1,-5 4,-5l15 0c3,0 4,2 5,5l45 164 1 0 45 -164c1,-3 3,-5 5,-5l15 0c3,0 5,2 4,5l-54 184c0,3 -2,5 -4,5z"/>
   <path class="fil0" d="M1206 1935l-95 0c-3,0 -4,-2 -4,-5l0 -184c0,-3 1,-5 4,-5l95 0c3,0 4,2 4,5l0 11c0,2 -1,4 -4,4l-74 0c-2,0 -3,1 -3,2l0 61c0,2 1,3 3,3l64 0c3,0 5,1 5,4l0 11c0,3 -2,4 -5,4l-64 0c-2,0 -3,1 -3,3l0 64c0,2 1,2 3,2l74 0c3,0 4,2 4,5l0 10c0,3 -1,5 -4,5z"/>
   <path class="fil0" d="M1307 1839l46 0c17,0 26,-8 26,-25l0 -27c0,-18 -9,-26 -26,-26l-46 0c-2,0 -3,1 -3,2l0 74c0,2 1,2 3,2zm-7 96l-14 0c-2,0 -4,-2 -4,-5l0 -184c0,-3 2,-5 4,-5l70 0c14,0 25,4 33,12 8,8 12,19 12,33l0 27c0,12 -2,21 -8,28 -5,7 -13,12 -23,15l0 1 35 73c2,3 1,5 -3,5l-13 0c-4,0 -6,-2 -8,-5l-34 -72 -40 0c-2,0 -3,1 -3,2l0 70c0,3 -1,5 -4,5z"/>
   <path class="fil0" d="M1499 1746l0 184c0,3 -2,5 -4,5l-14 0c-3,0 -4,-2 -4,-5l0 -184c0,-3 1,-5 4,-5l14 0c2,0 4,2 4,5z"/>
   <path class="fil0" d="M1596 1935l-13 0c-3,0 -5,-2 -5,-5l0 -184c0,-3 2,-5 5,-5l12 0c2,0 4,1 5,3l83 146 2 0 0 -144c0,-3 1,-5 4,-5l13 0c3,0 5,2 5,5l0 184c0,3 -2,5 -5,5l-11 0c-2,0 -4,-2 -6,-4l-84 -144 -1 0 0 143c0,3 -1,5 -4,5z"/>
   <path class="fil0" d="M1859 1935l-33 0c-14,0 -24,-4 -32,-12 -8,-8 -12,-19 -12,-33l0 -104c0,-14 4,-25 12,-33 8,-8 18,-12 32,-12l33 0c14,0 25,4 33,12 8,8 12,19 12,33l0 12c0,3 -2,5 -5,5l-13 0c-3,0 -4,-2 -4,-5l0 -11c0,-18 -9,-26 -26,-26l-27 0c-17,0 -25,8 -25,26l0 102c0,18 8,26 25,26l27 0c17,0 26,-8 26,-26l0 -33c0,-2 -1,-3 -3,-3l-30 0c-3,0 -4,-2 -4,-4l0 -11c0,-3 1,-5 4,-5l49 0c4,0 6,3 6,7l0 50c0,14 -4,25 -12,33 -8,8 -19,12 -33,12z"/>
   <path class="fil0" d="M2223 1741l24 0c3,0 5,2 5,5l0 184c0,3 -2,5 -5,5l-13 0c-3,0 -4,-2 -4,-5l0 -159 -1 0 -47 118c-2,2 -3,4 -6,4l-14 0c-3,0 -5,-2 -5,-4l-48 -118 -2 0 0 159c0,3 -1,5 -3,5l-14 0c-3,0 -4,-2 -4,-5l0 -184c0,-3 1,-5 4,-5l25 0c2,0 3,1 3,3l50 124 2 0 49 -124c1,-2 2,-3 4,-3z"/>
   <path class="fil0" d="M2429 1935l-95 0c-3,0 -4,-2 -4,-5l0 -184c0,-3 1,-5 4,-5l95 0c3,0 4,2 4,5l0 11c0,2 -1,4 -4,4l-74 0c-2,0 -3,1 -3,2l0 61c0,2 1,3 3,3l65 0c3,0 4,1 4,4l0 11c0,3 -1,4 -4,4l-65 0c-2,0 -3,1 -3,3l0 64c0,2 1,2 3,2l74 0c3,0 4,2 4,5l0 10c0,3 -1,5 -4,5z"/>
   <path class="fil0" d="M2584 1935l-37 0c-14,0 -25,-4 -33,-12 -8,-8 -12,-19 -12,-33l0 -104c0,-14 4,-25 12,-33 8,-8 19,-12 33,-12l37 0c13,0 24,4 32,12 8,8 12,19 12,33l0 15c0,2 -1,4 -4,4l-13 0c-3,0 -5,-2 -5,-4l0 -14c0,-18 -8,-26 -25,-26l-31 0c-17,0 -25,8 -25,26l0 102c0,18 8,26 25,26l31 0c17,0 25,-8 25,-26l0 -14c0,-2 2,-4 5,-4l13 0c3,0 4,2 4,4l0 15c0,14 -4,25 -12,33 -8,8 -19,12 -32,12z"/>
   <path class="fil0" d="M2717 1935l-13 0c-3,0 -4,-2 -4,-5l0 -184c0,-3 1,-5 4,-5l13 0c3,0 5,2 5,5l0 79c0,2 1,2 3,2l75 0c2,0 3,0 3,-2l0 -79c0,-3 1,-5 4,-5l14 0c3,0 4,2 4,5l0 184c0,3 -1,5 -4,5l-14 0c-3,0 -4,-2 -4,-5l0 -81c0,-1 -1,-2 -3,-2l-75 0c-2,0 -3,1 -3,2l0 81c0,3 -2,5 -5,5z"/>
   <path class="fil0" d="M2960 1764l-31 104 64 0 -31 -104 -2 0zm-54 171l-16 0c-2,0 -3,-2 -2,-5l56 -184c1,-3 3,-5 6,-5l22 0c3,0 5,2 6,5l56 184c1,3 0,5 -3,5l-15 0c-2,0 -4,-2 -4,-5l-14 -43 -74 0 -14 43c-1,3 -2,5 -4,5z"/>
   <path class="fil0" d="M3144 1935l-13 0c-3,0 -4,-2 -4,-5l0 -167c0,-1 -1,-2 -3,-2l-42 0c-3,0 -4,-2 -4,-4l0 -11c0,-3 1,-5 4,-5l111 0c3,0 4,2 4,5l0 11c0,2 -1,4 -4,4l-41 0c-2,0 -3,1 -3,2l0 167c0,3 -2,5 -5,5z"/>
   <path class="fil0" d="M3282 1839l45 0c18,0 26,-8 26,-25l0 -27c0,-18 -8,-26 -26,-26l-45 0c-2,0 -3,1 -3,2l0 74c0,2 1,2 3,2zm-8 96l-13 0c-3,0 -5,-2 -5,-5l0 -184c0,-3 2,-5 5,-5l69 0c14,0 25,4 33,12 9,8 13,19 13,33l0 27c0,12 -3,21 -9,28 -5,7 -13,12 -22,15l0 1 35 73c2,3 1,5 -3,5l-14 0c-3,0 -6,-2 -7,-5l-34 -72 -40 0c-2,0 -3,1 -3,2l0 70c0,3 -2,5 -5,5z"/>
   <path class="fil0" d="M3494 1915l31 0c16,0 25,-8 25,-26l0 -102c0,-18 -9,-26 -25,-26l-31 0c-17,0 -26,8 -26,26l0 102c0,18 9,26 26,26zm33 20l-36 0c-14,0 -25,-4 -33,-12 -8,-8 -12,-19 -12,-33l0 -104c0,-14 4,-25 12,-33 8,-8 19,-12 33,-12l36 0c14,0 25,4 33,12 8,8 12,19 12,33l0 104c0,14 -4,25 -12,33 -8,8 -19,12 -33,12z"/>
   <path class="fil0" d="M3665 1935l-14 0c-2,0 -4,-2 -4,-5l0 -184c0,-3 2,-5 4,-5l13 0c2,0 4,1 5,3l83 146 1 0 0 -144c0,-3 2,-5 5,-5l13 0c3,0 4,2 4,5l0 184c0,3 -1,5 -4,5l-11 0c-2,0 -5,-2 -7,-4l-83 -144 -1 0 0 143c0,3 -1,5 -4,5z"/>
   <path class="fil0" d="M3877 1746l0 184c0,3 -1,5 -4,5l-14 0c-3,0 -4,-2 -4,-5l0 -184c0,-3 1,-5 4,-5l14 0c3,0 4,2 4,5z"/>
   <path class="fil0" d="M4035 1935l-37 0c-13,0 -24,-4 -32,-12 -8,-8 -12,-19 -12,-33l0 -104c0,-14 4,-25 12,-33 8,-8 19,-12 32,-12l37 0c14,0 25,4 33,12 8,8 12,19 12,33l0 15c0,2 -2,4 -5,4l-13 0c-3,0 -4,-2 -4,-4l0 -14c0,-18 -9,-26 -26,-26l-31 0c-17,0 -25,8 -25,26l0 102c0,18 8,26 25,26l31 0c17,0 26,-8 26,-26l0 -14c0,-2 1,-4 4,-4l13 0c3,0 5,2 5,4l0 15c0,14 -4,25 -12,33 -8,8 -19,12 -33,12z"/>
   <path class="fil0" d="M4149 1890l0 -9c0,-3 1,-5 4,-5l14 0c2,0 4,2 4,5l0 7c0,18 9,27 27,27l26 0c18,0 27,-9 27,-27l0 -10c0,-15 -12,-24 -36,-29 -10,-1 -20,-4 -30,-6 -10,-2 -19,-7 -26,-14 -7,-7 -10,-16 -10,-28l0 -15c0,-14 4,-25 12,-33 8,-8 19,-12 33,-12l33 0c14,0 25,4 33,12 8,8 12,19 12,33l0 7c0,3 -1,5 -4,5l-14 0c-3,0 -4,-2 -4,-5l0 -5c0,-18 -9,-27 -27,-27l-26 0c-18,0 -26,9 -26,28l0 12c0,10 6,18 20,21 6,2 13,3 20,5 7,1 14,3 22,5 7,2 14,4 20,8 6,3 11,7 15,14 3,6 5,14 5,23l0 13c0,14 -4,25 -12,33 -8,8 -19,12 -33,12l-34 0c-14,0 -25,-4 -33,-12 -8,-8 -12,-19 -12,-33z"/>
   <path class="fil0" d="M4454 1890l0 -9c0,-3 2,-5 4,-5l14 0c3,0 4,2 4,5l0 7c0,18 9,27 27,27l27 0c18,0 27,-9 27,-27l0 -10c0,-15 -12,-24 -36,-29 -10,-1 -20,-4 -30,-6 -10,-2 -19,-7 -26,-14 -7,-7 -11,-16 -11,-28l0 -15c0,-14 4,-25 12,-33 8,-8 19,-12 33,-12l34 0c13,0 24,4 32,12 8,8 13,19 13,33l0 7c0,3 -2,5 -4,5l-14 0c-3,0 -4,-2 -4,-5l0 -5c0,-18 -9,-27 -27,-27l-26 0c-18,0 -27,9 -27,28l0 12c0,10 7,18 20,21 6,2 13,3 20,5 8,1 15,3 22,5 8,2 14,4 20,8 6,3 11,7 15,14 4,6 6,14 6,23l0 13c0,14 -4,25 -12,33 -8,8 -19,12 -33,12l-35 0c-14,0 -25,-4 -33,-12 -8,-8 -12,-19 -12,-33z"/>
   <path class="fil0" d="M4699 1915l31 0c17,0 25,-8 25,-26l0 -102c0,-18 -8,-26 -25,-26l-31 0c-17,0 -25,8 -25,26l0 102c0,18 8,26 25,26zm34 20l-36 0c-14,0 -25,-4 -33,-12 -8,-8 -12,-19 -12,-33l0 -104c0,-14 4,-25 12,-33 8,-8 19,-12 33,-12l36 0c14,0 24,4 32,12 8,8 12,19 12,33l0 104c0,14 -4,25 -12,33 -8,8 -18,12 -32,12z"/>
   <path class="fil0" d="M4954 1935l-97 0c-3,0 -4,-2 -4,-5l0 -184c0,-3 1,-5 4,-5l13 0c3,0 5,2 5,5l0 166c0,2 1,3 3,3l76 0c3,0 4,1 4,4l0 11c0,3 -1,5 -4,5z"/>
   <path class="fil0" d="M5123 1741l14 0c2,0 4,2 4,4l0 145c0,14 -4,25 -12,33 -8,8 -19,12 -33,12l-33 0c-14,0 -25,-4 -33,-12 -8,-8 -12,-19 -12,-33l0 -144c0,-3 1,-5 4,-5l14 0c3,0 4,2 4,5l0 143c0,18 8,26 25,26l29 0c17,0 25,-8 25,-26l0 -143c0,-3 1,-5 4,-5z"/>
   <path class="fil0" d="M5265 1935l-14 0c-2,0 -4,-2 -4,-5l0 -167c0,-1 -1,-2 -3,-2l-41 0c-3,0 -5,-2 -5,-4l0 -11c0,-3 2,-5 5,-5l110 0c3,0 5,2 5,5l0 11c0,2 -2,4 -5,4l-41 0c-2,0 -3,1 -3,2l0 167c0,3 -1,5 -4,5z"/>
   <path class="fil0" d="M5401 1746l0 184c0,3 -2,5 -5,5l-13 0c-3,0 -4,-2 -4,-5l0 -184c0,-3 1,-5 4,-5l13 0c3,0 5,2 5,5z"/>
   <path class="fil0" d="M5525 1915l30 0c17,0 26,-8 26,-26l0 -102c0,-18 -9,-26 -26,-26l-30 0c-17,0 -26,8 -26,26l0 102c0,18 9,26 26,26zm33 20l-36 0c-14,0 -25,-4 -33,-12 -8,-8 -12,-19 -12,-33l0 -104c0,-14 4,-25 12,-33 8,-8 19,-12 33,-12l36 0c14,0 25,4 33,12 8,8 12,19 12,33l0 104c0,14 -4,25 -12,33 -8,8 -19,12 -33,12z"/>
   <path class="fil0" d="M5696 1935l-14 0c-3,0 -4,-2 -4,-5l0 -184c0,-3 1,-5 4,-5l13 0c2,0 4,1 5,3l83 146 1 0 0 -144c0,-3 2,-5 5,-5l13 0c3,0 4,2 4,5l0 184c0,3 -1,5 -4,5l-11 0c-2,0 -5,-2 -7,-4l-83 -144 -1 0 0 143c0,3 -2,5 -4,5z"/>
   <path class="fil1" d="M5854 1842l107 0c2,0 3,-1 3,-3 0,-1 -1,-2 -3,-2l-107 0c-1,0 -2,1 -2,2 0,2 1,3 2,3z"/>
   <path class="fil1" d="M83 1842l144 0c2,0 3,-1 3,-3 0,-1 -1,-2 -3,-2l-144 0c-2,0 -3,1 -3,2 0,2 1,3 3,3z"/>
   <path class="fil2" d="M2337 667c0,7 -1,14 -4,19 -3,6 -6,11 -10,15 -5,4 -10,6 -16,8 -5,2 -11,3 -18,3l-53 0c-11,0 -21,-1 -29,-4 -8,-2 -16,-6 -23,-12 -7,-6 -13,-14 -20,-24 -6,-10 -13,-23 -21,-39l-154 -290c-9,-17 -18,-35 -28,-55 -9,-20 -17,-40 -25,-59l-1 0c2,23 3,46 3,69 1,23 1,46 1,71l0 324c0,3 -1,6 -2,9 -2,2 -5,4 -9,6 -5,2 -11,3 -18,4 -7,1 -17,2 -28,2 -11,0 -21,-1 -28,-2 -7,-1 -13,-2 -17,-4 -4,-2 -7,-4 -9,-6 -1,-3 -2,-6 -2,-9l0 -557c0,-15 4,-26 13,-34 9,-7 20,-11 32,-11l68 0c12,0 22,1 30,3 9,2 16,6 23,10 6,5 12,12 18,20 6,9 12,19 18,32l121 226c7,14 14,27 20,41 7,13 14,26 20,39 7,14 13,27 19,39 6,13 12,26 18,39l0 0c-1,-23 -1,-46 -2,-70 0,-24 -1,-48 -1,-70l0 -290c0,-4 1,-6 3,-9 2,-3 5,-5 10,-7 4,-2 10,-3 18,-4 7,-1 16,-1 28,-1 11,0 20,0 27,1 7,1 13,2 17,4 4,2 7,4 8,7 2,3 3,5 3,9l0 557z"/>
   <path class="fil2" d="M2743 434c1,-34 -6,-61 -21,-80 -14,-19 -37,-29 -67,-29 -15,0 -29,3 -40,9 -11,6 -21,13 -28,23 -8,10 -14,21 -18,35 -4,13 -6,27 -6,42l180 0zm116 34c0,15 -3,26 -9,33 -7,7 -16,10 -27,10l-260 0c0,19 2,35 6,50 4,15 11,28 21,38 9,10 21,18 36,24 15,5 33,8 53,8 21,0 40,-2 56,-5 16,-3 30,-6 41,-10 12,-4 22,-7 29,-10 8,-3 14,-4 19,-4 3,0 5,0 7,1 2,1 4,3 5,6 1,3 2,7 3,12 0,6 0,12 0,20 0,7 0,13 0,18 0,5 -1,9 -2,13 0,3 -1,6 -2,9 -2,2 -3,5 -5,7 -3,2 -8,5 -17,9 -10,4 -22,7 -36,11 -14,4 -31,7 -49,10 -19,2 -39,4 -60,4 -38,0 -71,-5 -100,-15 -28,-9 -52,-24 -71,-43 -19,-20 -34,-44 -43,-74 -9,-30 -14,-64 -14,-104 0,-38 5,-73 15,-103 10,-31 24,-56 43,-78 19,-21 42,-37 69,-48 27,-12 57,-17 91,-17 36,0 66,5 92,16 25,10 46,25 62,44 16,18 28,40 36,66 8,25 11,53 11,83l0 19z"/>
   <path class="fil2" d="M3407 663c6,12 10,20 12,27 1,7 0,12 -3,15 -4,4 -11,6 -21,7 -10,1 -24,2 -42,2 -15,0 -27,-1 -36,-1 -8,-1 -15,-2 -20,-3 -5,-2 -8,-4 -11,-6 -2,-3 -4,-6 -5,-10l-117 -224 -116 224c-2,4 -4,7 -6,10 -2,2 -6,4 -11,6 -5,1 -12,2 -20,3 -9,0 -21,1 -35,1 -17,0 -30,-1 -39,-2 -9,-1 -15,-3 -18,-7 -3,-3 -4,-8 -2,-15 2,-7 6,-15 12,-27l148 -270 -138 -255c-5,-11 -9,-20 -11,-27 -2,-7 -2,-12 2,-16 4,-3 11,-5 20,-6 10,-1 24,-1 43,-1 15,0 27,0 35,1 9,1 16,2 21,3 5,2 9,4 11,6 2,3 4,6 6,10l109 205 106 -205c1,-4 3,-7 6,-10 2,-2 5,-4 10,-6 4,-1 11,-2 19,-3 8,-1 19,-1 34,-1 15,0 28,0 37,1 10,1 16,3 20,7 3,3 4,8 2,15 -2,7 -5,16 -11,27l-138 253 147 272z"/>
   <path class="fil2" d="M3919 143c0,9 -1,17 -2,23 0,7 -2,12 -3,16 -2,4 -4,7 -6,9 -3,2 -5,3 -8,3l-155 0 0 500c0,3 -1,6 -3,8 -3,3 -6,5 -11,6 -5,2 -11,3 -19,4 -8,1 -18,2 -31,2 -12,0 -22,-1 -30,-2 -8,-1 -15,-2 -19,-4 -5,-1 -9,-3 -11,-6 -2,-2 -3,-5 -3,-8l0 -500 -155 0c-3,0 -6,-1 -8,-3 -2,-2 -4,-5 -6,-9 -1,-4 -3,-9 -3,-16 -1,-6 -2,-14 -2,-23 0,-10 1,-18 2,-25 0,-6 2,-12 3,-16 2,-4 4,-7 6,-8 2,-2 5,-3 8,-3l437 0c3,0 5,1 8,3 2,1 4,4 6,8 1,4 3,10 3,16 1,7 2,15 2,25z"/>
   <path class="fil3" d="M1811 1328l0 -22c0,-15 8,-23 23,-23l93 0c15,0 22,8 22,23l0 9c0,27 6,46 17,56 11,10 30,15 59,15l51 0c29,0 48,-5 60,-16 11,-11 16,-31 16,-61l0 -13c0,-21 -8,-37 -25,-48 -17,-11 -38,-18 -64,-20 -25,-2 -52,-7 -82,-13 -29,-6 -56,-14 -82,-24 -25,-9 -46,-29 -63,-57 -17,-29 -26,-65 -26,-110l0 -38c0,-57 16,-101 48,-132 32,-31 76,-46 133,-46l108 0c57,0 102,15 134,46 32,31 48,75 48,132l0 20c0,15 -8,23 -23,23l-93 0c-15,0 -22,-8 -22,-23l0 -6c0,-28 -6,-48 -17,-58 -11,-10 -30,-15 -59,-15l-43 0c-29,0 -49,6 -60,17 -10,11 -16,33 -16,66l0 20c0,34 30,54 89,59 62,5 116,17 164,37 26,11 47,30 64,58 17,28 25,63 25,107l0 37c0,56 -16,100 -47,131 -32,31 -76,47 -133,47l-118 0c-57,0 -101,-16 -133,-47 -32,-31 -48,-75 -48,-131z"/>
   <path class="fil3" d="M2604 1386l77 0c23,0 40,-5 50,-14 9,-10 14,-27 14,-50l0 -331c0,-23 -5,-40 -14,-49 -10,-10 -27,-15 -50,-15l-77 0c-23,0 -39,5 -49,15 -9,9 -14,26 -14,49l0 331c0,23 5,40 14,50 10,9 26,14 49,14zm100 120l-122 0c-57,0 -101,-15 -132,-46 -31,-30 -47,-74 -47,-131l0 -344c0,-58 16,-101 47,-132 31,-30 75,-45 132,-45l122 0c57,0 101,15 132,45 32,31 47,74 47,132l0 344c0,57 -15,101 -47,131 -31,31 -75,46 -132,46z"/>
   <path class="fil3" d="M3394 1506l-358 0c-15,0 -23,-8 -23,-23l0 -653c0,-15 8,-22 23,-22l93 0c15,0 22,7 22,22l0 543c0,8 5,12 13,12l230 0c14,0 21,8 21,24l0 74c0,15 -7,23 -21,23z"/>
   <path class="fil3" d="M3858 808l91 0c16,0 24,7 24,21l0 500c0,56 -15,100 -47,131 -31,30 -75,46 -132,46l-119 0c-57,0 -102,-15 -133,-46 -31,-30 -46,-74 -46,-131l0 -499c0,-15 7,-22 22,-22l93 0c15,0 22,7 22,22l0 492c0,23 5,40 15,50 10,9 26,14 48,14l75 0c24,0 40,-5 50,-14 10,-10 14,-27 14,-50l0 -492c0,-15 8,-22 23,-22z"/>
   <path class="fil3" d="M4325 1506l-91 0c-16,0 -24,-8 -24,-23l0 -544c0,-8 -4,-12 -12,-12l-124 0c-15,0 -22,-8 -22,-23l0 -74c0,-15 7,-22 22,-22l411 0c15,0 23,7 23,22l0 74c0,15 -8,23 -23,23l-124 0c-9,0 -13,4 -13,12l0 544c0,15 -8,23 -23,23z"/>
   <path class="fil3" d="M4733 830l0 653c0,15 -7,23 -22,23l-93 0c-15,0 -22,-8 -22,-23l0 -653c0,-15 7,-22 22,-22l93 0c15,0 22,7 22,22z"/>
   <path class="fil3" d="M5070 1386l77 0c23,0 40,-5 50,-14 9,-10 14,-27 14,-50l0 -331c0,-23 -5,-40 -14,-49 -10,-10 -27,-15 -50,-15l-77 0c-23,0 -39,5 -49,15 -9,9 -14,26 -14,49l0 331c0,23 5,40 14,50 10,9 26,14 49,14zm100 120l-122 0c-57,0 -101,-15 -132,-46 -31,-30 -47,-74 -47,-131l0 -344c0,-58 16,-101 47,-132 31,-30 75,-45 132,-45l122 0c57,0 101,15 132,45 32,31 47,74 47,132l0 344c0,57 -15,101 -47,131 -31,31 -75,46 -132,46z"/>
   <path class="fil3" d="M5592 1506l-90 0c-15,0 -23,-8 -23,-23l0 -653c0,-15 8,-22 23,-22l82 0c15,0 25,5 30,15l219 411 5 0 0 -404c0,-15 7,-22 23,-22l90 0c15,0 22,7 22,22l0 653c0,15 -7,23 -22,23l-80 0c-16,0 -27,-7 -34,-22l-218 -404 -4 0 0 403c0,15 -7,23 -23,23z"/>
   <path class="fil2" d="M318 332l313 0 244 296 0 -628 -875 0 0 1161c0,191 123,345 276,345l42 0 0 -1174z"/>
   <path class="fil3" d="M1230 0l-42 0 0 1174 -313 0 -244 -296 0 628 875 0 0 -1162c0,-190 -124,-344 -276,-344z"/>
   <path class="fil4" d="M318 1506l-42 0c-152,0 -275,-153 -276,-343l0 -1163 318 334 0 1172z"/>
   <path class="fil3" d="M1230 0l-42 0 0 1174 -313 0 -244 -296 0 628 875 0 0 -1162c0,-190 -124,-344 -276,-344z"/>
   <path class="fil5" d="M1506 1506l0 0 -318 -334 0 -1172 42 0c152,0 276,154 276,344l0 1162z"/>
  </g>
 </g>
</svg>
